<?xml version="1.0" encoding="utf-8"?>
<!-- Generator: Adobe Illustrator 24.1.0, SVG Export Plug-In . SVG Version: 6.00 Build 0)  -->
<svg version="1.1" id="Layer_1" xmlns="http://www.w3.org/2000/svg" xmlns:xlink="http://www.w3.org/1999/xlink" x="0px" y="0px"
	 viewBox="0 0 16 16" style="enable-background:new 0 0 16 16;" xml:space="preserve">
<style type="text/css">
	.st0{fill:#FFFFFF;}
</style>
<path class="st0" d="M6.6,1c3.1,0,5.6,2.5,5.6,5.6s-2.5,5.6-5.6,5.6S1,9.6,1,6.6l0,0C1,3.5,3.5,1,6.6,1 M6.6,0C2.9,0,0,2.9,0,6.6
	s2.9,6.6,6.6,6.6s6.6-2.9,6.6-6.6S10.2,0,6.6,0C6.6,0,6.6,0,6.6,0z"/>
<rect x="11.8" y="9.9" transform="matrix(0.7071 -0.7071 0.7071 0.7071 -5.3175 12.8354)" class="st0" width="2" height="5.9"/>
</svg>
